# This file uses centimeters as units for non-parametric coordinates.

mtllib door.mtl
g default
v -1.626373 3.147805 0.215504
v -0.550328 3.147805 0.215504
v -1.626373 0.000000 0.215504
v -0.550328 0.000000 0.215504
v 0.000000 3.147805 0.215504
v 0.000000 0.000000 0.215504
v -1.524983 3.021714 0.215504
v -0.583101 3.021714 0.215504
v -1.524983 0.028907 0.215504
v -0.583101 0.028907 0.215504
v -0.101390 3.021714 0.215504
v -0.101390 0.028907 0.215504
v -1.524983 3.021714 0.123510
v -0.583101 3.021714 0.123510
v -1.524983 0.028907 0.123510
v -0.583101 0.028907 0.123510
v -0.101390 3.021714 0.123510
v -0.101390 0.028907 0.123510
v -1.054042 1.818725 0.123510
v -1.054042 3.021714 0.123510
v -1.524983 1.818725 0.123510
v -1.054042 0.028907 0.123510
v -0.583101 1.818725 0.123510
v -0.342246 1.818725 0.123509
v -0.342246 3.021714 0.123510
v -0.342246 0.028907 0.123510
v -0.101390 1.818725 0.123510
v -0.642223 2.837304 0.123510
v -0.642223 2.025040 0.123510
v -0.992153 2.837304 0.123510
v -0.992154 2.025040 0.123510
v -0.284291 2.837304 0.123510
v -0.284291 2.025040 0.123510
v -0.463256 2.837304 0.123510
v -0.463256 2.025040 0.123509
v -1.342083 2.837304 0.123510
v -1.342083 2.025040 0.123510
v -1.358515 1.705136 0.123510
v -1.358515 0.142495 0.123510
v -0.997714 0.142495 0.123510
v -0.997714 1.705136 0.123510
v -0.636912 0.142495 0.123510
v -0.636912 1.705136 0.123510
v -0.452384 0.142495 0.123510
v -0.452385 1.705136 0.123509
v -0.267858 0.142495 0.123510
v -0.267858 1.705136 0.123510
v -0.642223 2.837304 0.094816
v -0.642223 2.025040 0.094816
v -0.992153 2.837304 0.094816
v -0.992154 2.025040 0.094815
v -0.284291 2.837304 0.094816
v -0.284291 2.025040 0.094816
v -0.463256 2.837304 0.094816
v -0.463256 2.025040 0.094814
v -1.342083 2.837304 0.094816
v -1.342083 2.025040 0.094816
v -1.358515 1.705136 0.094816
v -1.358515 0.142495 0.094816
v -0.997714 0.142495 0.094816
v -0.997714 1.705136 0.094815
v -0.636912 0.142495 0.094816
v -0.636912 1.705136 0.094816
v -0.452384 0.142495 0.094816
v -0.452385 1.705136 0.094814
v -0.267858 0.142495 0.094816
v -0.267858 1.705136 0.094816
v -1.626373 3.147805 0.000000
v -0.550328 3.147805 0.000000
v -1.626373 0.000000 0.000000
v -0.550328 0.000000 0.000000
v 0.000000 3.147805 0.000000
v 0.000000 0.000000 0.000000
vt 0.417047 0.845757
vt 0.424471 0.845757
vt 0.424471 0.848955
vt 0.417047 0.848955
vt 0.417047 0.842485
vt 0.424471 0.842485
vt 0.424471 0.844121
vt 0.417047 0.844121
vt 0.342568 0.704549
vt 0.335135 0.718935
vt 0.331144 0.717783
vt 0.339753 0.717783
vt 0.330217 0.699754
vt 0.331144 0.690427
vt 0.335135 0.690163
vt 0.339753 0.690427
vt 0.345083 0.718935
vt 0.344156 0.717783
vt 0.342568 0.690163
vt 0.344156 0.690427
vt 0.209385 0.812463
vt 0.209385 0.821072
vt 0.208544 0.821072
vt 0.208544 0.816768
vt 0.208544 0.812463
vt 0.936739 0.652553
vt 0.936739 0.625197
vt 0.937580 0.625197
vt 0.937580 0.641557
vt 0.937580 0.652553
vt 0.215918 0.810606
vt 0.215918 0.801997
vt 0.216759 0.801997
vt 0.216759 0.806301
vt 0.216759 0.810606
vt 0.209385 0.808060
vt 0.208544 0.810262
vt 0.208544 0.808060
vt 0.215918 0.797594
vt 0.216759 0.797594
vt 0.216759 0.799795
vt 0.944024 0.582554
vt 0.944024 0.609910
vt 0.943184 0.609910
vt 0.943184 0.598914
vt 0.943184 0.582554
vt 0.424471 0.852154
vt 0.417047 0.852154
vt 0.420317 0.791528
vt 0.420317 0.777245
vt 0.423615 0.777245
vt 0.423615 0.791528
vt 0.426912 0.777245
vt 0.426912 0.791528
vt 0.428599 0.777245
vt 0.428599 0.791528
vt 0.430286 0.777245
vt 0.430286 0.791528
vt 0.932977 0.683874
vt 0.928672 0.683874
vt 0.929238 0.682189
vt 0.932437 0.682189
vt 0.928672 0.672878
vt 0.932977 0.672878
vt 0.932437 0.674764
vt 0.929238 0.674764
vt 0.937380 0.672878
vt 0.937380 0.683874
vt 0.935708 0.682189
vt 0.935708 0.674764
vt 0.935179 0.683874
vt 0.934072 0.682189
vt 0.935179 0.672878
vt 0.934072 0.674764
vt 0.924368 0.683874
vt 0.926040 0.682189
vt 0.924368 0.672878
vt 0.926040 0.674764
vt 0.924368 0.656519
vt 0.925889 0.657557
vt 0.925889 0.671840
vt 0.928672 0.656519
vt 0.929187 0.657557
vt 0.929187 0.671840
vt 0.932977 0.656519
vt 0.932485 0.657557
vt 0.932485 0.671840
vt 0.935179 0.656519
vt 0.934172 0.657557
vt 0.934172 0.671840
vt 0.937380 0.656519
vt 0.935858 0.657557
vt 0.935858 0.671840
vt 0.411243 0.845757
vt 0.411243 0.848955
vt 0.410981 0.848955
vt 0.410981 0.845757
vt 0.404915 0.848955
vt 0.404915 0.845757
vt 0.405178 0.845757
vt 0.405178 0.848955
vt 0.839294 0.787287
vt 0.839294 0.794711
vt 0.839032 0.794711
vt 0.839032 0.787287
vt 0.411243 0.842485
vt 0.411243 0.844121
vt 0.410981 0.844121
vt 0.410981 0.842485
vt 0.404915 0.844121
vt 0.404915 0.842485
vt 0.405178 0.842485
vt 0.405178 0.844121
vt 0.411243 0.852154
vt 0.410981 0.852154
vt 0.846406 0.794712
vt 0.846406 0.787287
vt 0.846668 0.787287
vt 0.846668 0.794712
vt 0.404915 0.852154
vt 0.405178 0.852154
vt 0.414251 0.791528
vt 0.414251 0.777245
vt 0.414513 0.777245
vt 0.414513 0.791528
vt 0.485037 0.841707
vt 0.485037 0.838409
vt 0.485299 0.838409
vt 0.485299 0.841707
vt 0.479233 0.848022
vt 0.479233 0.851320
vt 0.478971 0.851320
vt 0.478971 0.848022
vt 0.485037 0.835111
vt 0.485299 0.835111
vt 0.479233 0.844724
vt 0.478971 0.844724
vt 0.485037 0.833425
vt 0.485299 0.833425
vt 0.479233 0.843038
vt 0.478971 0.843038
vt 0.485037 0.831738
vt 0.485299 0.831738
vt 0.408448 0.777245
vt 0.408448 0.791529
vt 0.408185 0.791529
vt 0.408185 0.777245
vt 0.479233 0.841351
vt 0.478971 0.841351
vt 0.340053 0.718935
vt 0.330217 0.718935
vt 0.340053 0.690163
vt 0.345083 0.718935
vt 0.345083 0.690163
vt 0.345083 0.718935
vn -0.000001 -0.000001 1.000000
vn -0.000001 -0.000001 1.000000
vn -0.000001 -0.000001 1.000000
vn -0.000001 -0.000001 1.000000
vn -0.000005 -0.000001 1.000000
vn -0.000005 -0.000001 1.000000
vn -0.000005 -0.000001 1.000000
vn -0.000005 -0.000001 1.000000
vn 0.000000 0.000000 1.000000
vn 0.000000 0.000000 1.000000
vn 0.000000 0.000000 1.000000
vn 0.000000 0.000000 1.000000
vn 0.000000 0.000000 1.000000
vn 0.000000 0.000000 1.000000
vn 0.000000 0.000000 1.000000
vn 0.000000 0.000000 1.000000
vn 0.000000 0.000000 1.000000
vn 0.000000 0.000000 1.000000
vn 0.000000 0.000000 1.000000
vn 0.000000 0.000000 1.000000
vn 0.000000 0.000000 1.000000
vn 0.000000 0.000000 1.000000
vn 0.000000 0.000000 1.000000
vn 0.000000 0.000000 1.000000
vn 0.000000 0.000000 1.000000
vn 0.000000 0.000000 1.000000
vn 0.000000 0.000000 1.000000
vn 0.000000 0.000000 1.000000
vn 0.000000 0.000000 1.000000
vn 0.000000 0.000000 1.000000
vn 0.000000 0.000000 1.000000
vn 0.000000 0.000000 1.000000
vn 0.000000 -1.000000 0.000000
vn 0.000000 -1.000000 0.000000
vn 0.000000 -1.000000 0.000000
vn 0.000000 -1.000000 0.000000
vn 0.000000 -1.000000 0.000000
vn 1.000000 0.000000 0.000000
vn 1.000000 0.000000 0.000000
vn 1.000000 0.000000 0.000000
vn 1.000000 0.000000 0.000000
vn 1.000000 0.000000 0.000000
vn 0.000000 1.000000 0.000000
vn 0.000000 1.000000 0.000000
vn 0.000000 1.000000 0.000000
vn 0.000000 1.000000 0.000000
vn 0.000000 1.000000 0.000000
vn 0.000000 -1.000000 0.000000
vn 0.000000 -1.000000 0.000000
vn 0.000000 -1.000000 0.000000
vn 0.000000 -1.000000 0.000000
vn 0.000000 -1.000000 0.000000
vn 0.000000 1.000000 0.000000
vn 0.000000 1.000000 0.000000
vn 0.000000 1.000000 0.000000
vn 0.000000 1.000000 0.000000
vn 0.000000 1.000000 0.000000
vn -1.000000 0.000000 0.000000
vn -1.000000 0.000000 0.000000
vn -1.000000 0.000000 0.000000
vn -1.000000 0.000000 0.000000
vn -1.000000 0.000000 0.000000
vn 0.000001 -0.000001 1.000000
vn 0.000001 -0.000001 1.000000
vn 0.000001 -0.000001 1.000000
vn 0.000001 -0.000001 1.000000
vn 0.000001 0.000000 1.000000
vn 0.000001 0.000000 1.000000
vn 0.000001 0.000000 1.000000
vn 0.000001 0.000000 1.000000
vn -0.000001 0.000000 1.000000
vn -0.000001 0.000000 1.000000
vn -0.000001 0.000000 1.000000
vn -0.000001 0.000000 1.000000
vn 0.000005 -0.000001 1.000000
vn 0.000005 -0.000001 1.000000
vn 0.000005 -0.000001 1.000000
vn 0.000005 -0.000001 1.000000
vn 0.000005 0.000001 1.000000
vn 0.000005 0.000001 1.000000
vn 0.000005 0.000001 1.000000
vn 0.000005 0.000001 1.000000
vn -0.000005 0.000001 1.000000
vn -0.000005 0.000001 1.000000
vn -0.000005 0.000001 1.000000
vn -0.000005 0.000001 1.000000
vn 0.000000 0.000000 1.000000
vn 0.000000 0.000000 1.000000
vn 0.000000 0.000000 1.000000
vn 0.000000 0.000000 1.000000
vn 0.000000 0.000000 1.000000
vn 0.000000 0.000000 1.000000
vn 0.000000 0.000000 1.000000
vn 0.000000 0.000000 1.000000
vn -0.000000 0.000000 1.000000
vn -0.000000 0.000000 1.000000
vn -0.000000 0.000000 1.000000
vn -0.000000 0.000000 1.000000
vn 0.000000 0.000000 1.000000
vn 0.000000 0.000000 1.000000
vn 0.000000 0.000000 1.000000
vn 0.000000 0.000000 1.000000
vn -0.000005 -0.000003 1.000000
vn -0.000005 -0.000003 1.000000
vn -0.000005 -0.000003 1.000000
vn -0.000005 -0.000003 1.000000
vn 0.000000 0.000000 1.000000
vn 0.000000 0.000000 1.000000
vn 0.000000 0.000000 1.000000
vn 0.000000 0.000000 1.000000
vn 0.000000 0.000000 1.000000
vn 0.000000 0.000000 1.000000
vn 0.000000 0.000000 1.000000
vn 0.000000 0.000000 1.000000
vn 0.000000 0.000000 1.000000
vn 0.000000 0.000000 1.000000
vn 0.000000 0.000000 1.000000
vn 0.000000 0.000000 1.000000
vn 0.000000 0.000000 1.000000
vn 0.000000 0.000000 1.000000
vn 0.000000 0.000000 1.000000
vn 0.000000 0.000000 1.000000
vn 0.000005 0.000002 1.000000
vn 0.000005 0.000002 1.000000
vn 0.000005 0.000002 1.000000
vn 0.000005 0.000002 1.000000
vn -0.000000 0.000000 1.000000
vn -0.000000 0.000000 1.000000
vn -0.000000 0.000000 1.000000
vn -0.000000 0.000000 1.000000
vn 0.000000 0.000000 1.000000
vn 0.000000 0.000000 1.000000
vn 0.000000 0.000000 1.000000
vn 0.000000 0.000000 1.000000
vn 0.000000 0.000000 1.000000
vn 0.000000 0.000000 1.000000
vn 0.000000 0.000000 1.000000
vn 0.000000 0.000000 1.000000
vn 0.000000 0.000000 1.000000
vn 0.000000 0.000000 1.000000
vn 0.000000 0.000000 1.000000
vn 0.000000 0.000000 1.000000
vn 0.000000 0.000000 1.000000
vn 0.000000 0.000000 1.000000
vn 0.000000 0.000000 1.000000
vn 0.000000 0.000000 1.000000
vn 0.000000 0.000000 1.000000
vn 0.000000 0.000000 1.000000
vn 0.000000 0.000000 1.000000
vn 0.000000 0.000000 1.000000
vn 0.000004 -0.000003 1.000000
vn 0.000004 -0.000003 1.000000
vn 0.000004 -0.000003 1.000000
vn 0.000004 -0.000003 1.000000
vn 0.000000 0.000000 1.000000
vn 0.000000 0.000000 1.000000
vn 0.000000 0.000000 1.000000
vn 0.000000 0.000000 1.000000
vn 0.000000 0.000000 1.000000
vn 0.000000 0.000000 1.000000
vn 0.000000 0.000000 1.000000
vn 0.000000 0.000000 1.000000
vn -0.000004 0.000005 1.000000
vn -0.000004 0.000005 1.000000
vn -0.000004 0.000005 1.000000
vn -0.000004 0.000005 1.000000
vn 0.000000 -1.000000 0.000000
vn 0.000000 -1.000000 0.000000
vn 0.000000 -1.000000 0.000000
vn 0.000000 -1.000000 0.000000
vn 0.000000 1.000000 0.000000
vn 0.000000 1.000000 0.000000
vn 0.000000 1.000000 0.000000
vn 0.000000 1.000000 0.000000
vn -1.000000 0.000000 0.000000
vn -1.000000 0.000000 0.000000
vn -1.000000 0.000000 0.000000
vn -1.000000 0.000000 0.000000
vn 0.000000 -1.000000 0.000000
vn 0.000000 -1.000000 0.000000
vn 0.000000 -1.000000 0.000000
vn 0.000000 -1.000000 0.000000
vn 0.000000 1.000000 0.000000
vn 0.000000 1.000000 0.000000
vn 0.000000 1.000000 0.000000
vn 0.000000 1.000000 0.000000
vn 0.000000 -1.000000 0.000000
vn 0.000000 -1.000000 0.000000
vn 0.000000 -1.000000 0.000000
vn 0.000000 -1.000000 0.000000
vn 1.000000 0.000000 0.000000
vn 1.000000 0.000000 0.000000
vn 1.000000 0.000000 0.000000
vn 1.000000 0.000000 0.000000
vn 0.000000 1.000000 0.000000
vn 0.000000 1.000000 0.000000
vn 0.000000 1.000000 0.000000
vn 0.000000 1.000000 0.000000
vn 0.000000 -1.000000 0.000000
vn 0.000000 -1.000000 0.000000
vn 0.000000 -1.000000 0.000000
vn 0.000000 -1.000000 0.000000
vn 0.000000 1.000000 0.000000
vn 0.000000 1.000000 0.000000
vn 0.000000 1.000000 0.000000
vn 0.000000 1.000000 0.000000
vn 1.000000 0.000000 0.000000
vn 1.000000 0.000000 0.000000
vn 1.000000 0.000000 0.000000
vn 1.000000 0.000000 0.000000
vn 0.000000 1.000000 0.000000
vn 0.000000 1.000000 0.000000
vn 0.000000 1.000000 0.000000
vn 0.000000 1.000000 0.000000
vn 0.000000 -1.000000 0.000000
vn 0.000000 -1.000000 0.000000
vn 0.000000 -1.000000 0.000000
vn 0.000000 -1.000000 0.000000
vn 0.000000 1.000000 0.000000
vn 0.000000 1.000000 0.000000
vn 0.000000 1.000000 0.000000
vn 0.000000 1.000000 0.000000
vn 0.000000 -1.000000 0.000000
vn 0.000000 -1.000000 0.000000
vn 0.000000 -1.000000 0.000000
vn 0.000000 -1.000000 0.000000
vn 0.000000 1.000000 0.000000
vn 0.000000 1.000000 0.000000
vn 0.000000 1.000000 0.000000
vn 0.000000 1.000000 0.000000
vn 0.000000 -1.000000 0.000000
vn 0.000000 -1.000000 0.000000
vn 0.000000 -1.000000 0.000000
vn 0.000000 -1.000000 0.000000
vn 0.000000 1.000000 0.000000
vn 0.000000 1.000000 0.000000
vn 0.000000 1.000000 0.000000
vn 0.000000 1.000000 0.000000
vn -1.000000 0.000000 0.000000
vn -1.000000 0.000000 0.000000
vn -1.000000 0.000000 0.000000
vn -1.000000 0.000000 0.000000
vn 0.000000 -1.000000 0.000000
vn 0.000000 -1.000000 0.000000
vn 0.000000 -1.000000 0.000000
vn 0.000000 -1.000000 0.000000
vn 0.000000 1.000000 0.000000
vn 0.000000 1.000000 0.000000
vn 0.000000 1.000000 0.000000
vn 0.000000 1.000000 0.000000
vn -1.000000 0.000000 0.000000
vn -1.000000 0.000000 0.000000
vn -1.000000 0.000000 0.000000
vn -1.000000 0.000000 0.000000
vn 0.000000 -1.000000 0.000000
vn 0.000000 -1.000000 0.000000
vn 0.000000 -1.000000 0.000000
vn 0.000000 -1.000000 0.000000
vn 0.000000 1.000000 0.000000
vn 0.000000 1.000000 0.000000
vn 0.000000 1.000000 0.000000
vn 0.000000 1.000000 0.000000
vn 0.000000 -1.000000 0.000000
vn 0.000000 -1.000000 0.000000
vn 0.000000 -1.000000 0.000000
vn 0.000000 -1.000000 0.000000
vn 1.000000 0.000000 0.000000
vn 1.000000 0.000000 0.000000
vn 1.000000 0.000000 0.000000
vn 1.000000 0.000000 0.000000
vn 0.000000 0.000000 -1.000000
vn 0.000000 0.000000 -1.000000
vn 0.000000 0.000000 -1.000000
vn 0.000000 0.000000 -1.000000
vn 0.000000 0.000000 -1.000000
vn 0.000000 0.000000 -1.000000
vn 0.000000 0.000000 -1.000000
vn 0.000000 0.000000 -1.000000
s off
g polySurface296 polySurface205
usemtl texturedFacets1
f 49/1/1 48/2/2 50/3/3 51/4/4
f 53/5/5 52/6/6 54/7/7 55/8/8
f 2/9/9 1/10/10 7/11/11 8/12/12
f 1/10/13 3/13/14 9/14/15 7/11/16
f 3/13/17 4/15/18 10/16/19 9/14/20
f 5/17/21 2/9/22 8/12/23 11/18/24
f 4/15/25 6/19/26 12/20/27 10/16/28
f 6/19/29 5/17/30 11/18/31 12/20/32
f 8/21/33 7/22/34 13/23/35 20/24/36 14/25/37
f 7/26/38 9/27/39 15/28/40 21/29/41 13/30/42
f 9/31/43 10/32/44 16/33/45 22/34/46 15/35/47
f 11/36/48 8/21/49 14/25/50 25/37/51 17/38/52
f 10/32/53 12/39/54 18/40/55 26/41/56 16/33/57
f 12/42/58 11/43/59 17/44/60 27/45/61 18/46/62
f 50/3/63 56/47/64 57/48/65 51/4/66
f 58/49/67 59/50/68 60/51/69 61/52/70
f 60/51/71 62/53/72 63/54/73 61/52/74
f 54/7/75 48/2/76 49/1/77 55/8/78
f 63/54/79 62/53/80 64/55/81 65/56/82
f 64/55/83 66/57/84 67/58/85 65/56/86
f 14/59/87 20/60/88 30/61/89 28/62/90
f 19/63/91 23/64/92 29/65/93 31/66/94
f 27/67/95 17/68/96 32/69/97 33/70/98
f 17/68/99 25/71/100 34/72/101 32/69/102
f 24/73/103 27/67/104 33/70/105 35/74/106
f 20/60/107 13/75/108 36/76/109 30/61/110
f 13/75/111 21/77/112 37/78/113 36/76/114
f 21/77/115 19/63/116 31/66/117 37/78/118
f 25/71/119 14/59/120 28/62/121 34/72/122
f 23/64/123 24/73/124 35/74/125 29/65/126
f 21/77/127 15/79/128 39/80/129 38/81/130
f 15/79/131 22/82/132 40/83/133 39/80/134
f 19/63/135 21/77/136 38/81/137 41/84/138
f 22/82/139 16/85/140 42/86/141 40/83/142
f 23/64/143 19/63/144 41/84/145 43/87/146
f 16/85/147 26/88/148 44/89/149 42/86/150
f 24/73/151 23/64/152 43/87/153 45/90/154
f 26/88/155 18/91/156 46/92/157 44/89/158
f 18/91/159 27/67/160 47/93/161 46/92/162
f 27/67/163 24/73/164 45/90/165 47/93/166
f 28/94/167 30/95/168 50/96/169 48/97/170
f 31/98/171 29/99/172 49/100/173 51/101/174
f 33/102/175 32/103/176 52/104/177 53/105/178
f 32/106/179 34/107/180 54/108/181 52/109/182
f 35/110/183 33/111/184 53/112/185 55/113/186
f 30/95/187 36/114/188 56/115/189 50/96/190
f 36/116/191 37/117/192 57/118/193 56/119/194
f 37/120/195 31/98/196 51/101/197 57/121/198
f 34/107/199 28/94/200 48/97/201 54/108/202
f 29/99/203 35/110/204 55/113/205 49/100/206
f 38/122/207 39/123/208 59/124/209 58/125/210
f 39/126/211 40/127/212 60/128/213 59/129/214
f 41/130/215 38/131/216 58/132/217 61/133/218
f 40/127/219 42/134/220 62/135/221 60/128/222
f 43/136/223 41/130/224 61/133/225 63/137/226
f 42/134/227 44/138/228 64/139/229 62/135/230
f 45/140/231 43/136/232 63/137/233 65/141/234
f 44/138/235 46/142/236 66/143/237 64/139/238
f 46/144/239 47/145/240 67/146/241 66/147/242
f 47/148/243 45/140/244 65/141/245 67/149/246
f 1/9/247 2/150/248 69/10/249 68/13/250
f 3/10/251 1/151/252 68/13/253 70/13/254
f 4/15/255 3/152/256 70/13/257 71/15/258
f 2/17/259 5/153/260 72/9/261 69/10/262
f 6/19/263 4/154/264 71/15/265 73/19/266
f 5/17/267 6/155/268 73/19/269 72/9/270
f 69/10/271 72/9/272 73/19/273 71/15/274
f 68/13/275 69/10/276 71/15/277 70/13/278
