# This file uses centimeters as units for non-parametric coordinates.

mtllib window1.mtl
g default
v -1.545937 0.144145 0.211824
v -1.545937 2.726599 0.211824
v -0.081728 0.144145 0.211824
v -0.081728 2.726599 0.211824
v -1.545937 0.144145 0.146828
v -1.545937 2.726599 0.146828
v -0.081728 0.144145 0.146828
v -0.081728 2.726599 0.146828
v -1.496349 0.188313 0.146828
v -1.496349 2.682430 0.146828
v -0.131315 0.188313 0.146828
v -0.131315 2.682430 0.146828
v -0.081728 1.433112 0.211824
v -0.081728 1.494328 0.211824
v -0.081728 1.433112 0.146828
v -0.081728 1.494328 0.146828
v -0.131315 1.433112 0.146828
v -0.131315 1.494328 0.146828
v -1.496349 1.433112 0.146828
v -1.496349 1.494328 0.146828
v -1.545937 1.433112 0.146828
v -1.545937 1.494328 0.146828
v -1.545937 1.433112 0.211824
v -1.545937 1.494328 0.211824
v -1.496349 1.433112 0.081191
v -0.131315 1.433112 0.081191
v -1.496349 0.188313 0.081191
v -0.131315 0.188313 0.081191
v -1.496349 2.682430 0.126402
v -1.496349 1.494328 0.126402
v -0.131315 1.494328 0.126402
v -0.131315 2.682430 0.126402
v -1.471033 1.410447 0.081191
v -0.156630 1.410447 0.081191
v -1.471033 0.210979 0.081191
v -0.156630 0.210979 0.081191
v -1.471361 2.660059 0.126402
v -1.471361 1.516700 0.126402
v -0.156301 1.516700 0.126402
v -0.156301 2.660059 0.126402
v -1.471033 1.410447 0.072239
v -0.156630 1.410447 0.072239
v -1.471033 0.210979 0.072239
v -0.156630 0.210979 0.072239
v -1.471361 2.660059 0.117450
v -1.471361 1.516700 0.117450
v -0.156301 1.516700 0.117450
v -0.156301 2.660059 0.117450
v -0.081728 0.144145 0.211824
v -1.545937 0.144145 0.211824
v -0.081728 2.726599 0.211824
v -1.545937 2.726599 0.211824
v -0.081728 1.494328 0.211824
v -0.081728 1.433112 0.211824
v -1.545937 1.494328 0.211824
v -1.545937 1.433112 0.211824
v 0.000000 0.000000 0.211824
v -1.627665 0.000000 0.211824
v 0.000000 2.870744 0.211824
v -1.627665 2.870744 0.211824
v 0.000000 1.500910 0.211824
v 0.000000 1.432859 0.211824
v -1.627665 1.500910 0.211824
v -1.627665 1.432859 0.211824
v 0.000000 0.000000 0.000000
v -1.627665 0.000000 0.000000
v 0.000000 2.870744 0.000000
v -1.627665 2.870744 0.000000
v 0.000000 1.500910 0.000000
v 0.000000 1.432859 0.000000
v -1.627663 1.500910 0.000000
v -1.627665 1.432859 0.000000
v -0.813835 1.443388 0.000000
vt 0.193796 0.821443
vt 0.193796 0.808060
vt 0.194390 0.808060
vt 0.194390 0.821443
vt 0.201764 0.808060
vt 0.201764 0.821444
vt 0.201170 0.821444
vt 0.201170 0.808060
vt 0.001884 0.805853
vt 0.015268 0.805853
vt 0.014814 0.806257
vt 0.002338 0.806257
vt 0.015268 0.829458
vt 0.001884 0.829458
vt 0.002338 0.829054
vt 0.014814 0.829054
vt 0.022942 0.817635
vt 0.022942 0.818194
vt 0.022347 0.818194
vt 0.022347 0.817635
vt 0.015268 0.817635
vt 0.015268 0.818194
vt 0.014814 0.818194
vt 0.014814 0.817635
vt 0.002338 0.818194
vt 0.002338 0.817635
vt 0.001884 0.818194
vt 0.001884 0.817635
vt 0.030316 0.817635
vt 0.030316 0.818194
vt 0.029722 0.818194
vt 0.029722 0.817635
vt 0.346260 0.811505
vt 0.346260 0.823519
vt 0.335296 0.823519
vt 0.335296 0.811505
vt 0.029722 0.805853
vt 0.030316 0.805853
vt 0.022942 0.805853
vt 0.022347 0.805853
vt 0.022942 0.829458
vt 0.022347 0.829458
vt 0.459897 0.822583
vt 0.449446 0.822583
vt 0.449446 0.810562
vt 0.459897 0.810562
vt 0.029722 0.829458
vt 0.030316 0.829458
vt 0.861754 0.725457
vt 0.861754 0.737934
vt 0.861154 0.737934
vt 0.861154 0.725457
vt 0.016817 0.894366
vt 0.016817 0.882988
vt 0.017417 0.882988
vt 0.017417 0.894366
vt 0.868528 0.737934
vt 0.868528 0.725457
vt 0.869128 0.725457
vt 0.869128 0.737934
vt 0.024791 0.882988
vt 0.024791 0.894366
vt 0.024191 0.894366
vt 0.024191 0.882988
vt 0.836758 0.783310
vt 0.836758 0.772451
vt 0.836944 0.772451
vt 0.836944 0.783310
vt 0.875902 0.737553
vt 0.875902 0.725076
vt 0.876089 0.725076
vt 0.876089 0.737553
vt 0.830954 0.772450
vt 0.830954 0.783310
vt 0.830767 0.783310
vt 0.830767 0.772450
vt 0.883463 0.724936
vt 0.883463 0.737414
vt 0.883276 0.737414
vt 0.883276 0.724936
vt 0.902029 0.727582
vt 0.902029 0.740059
vt 0.901821 0.739827
vt 0.901821 0.727813
vt 0.890650 0.740059
vt 0.890858 0.739827
vt 0.890650 0.727582
vt 0.890858 0.727813
vt 0.919946 0.740216
vt 0.909086 0.740216
vt 0.909290 0.739988
vt 0.919741 0.739988
vt 0.909086 0.727739
vt 0.909290 0.727968
vt 0.919946 0.727739
vt 0.919741 0.727968
vt 0.329493 0.811379
vt 0.329493 0.823393
vt 0.329411 0.823393
vt 0.329411 0.811379
vt 0.896602 0.785670
vt 0.896602 0.774707
vt 0.896684 0.774707
vt 0.896684 0.785670
vt 0.323526 0.824570
vt 0.323526 0.812556
vt 0.323608 0.812556
vt 0.323608 0.824570
vt 0.890799 0.774707
vt 0.890799 0.785670
vt 0.890717 0.785670
vt 0.890717 0.774707
vt 0.666435 0.782161
vt 0.666435 0.771710
vt 0.666517 0.771710
vt 0.666517 0.782161
vt 0.443561 0.822583
vt 0.443561 0.810562
vt 0.443643 0.810562
vt 0.443643 0.822583
vt 0.660632 0.771697
vt 0.660632 0.782148
vt 0.660550 0.782148
vt 0.660550 0.771697
vt 0.437758 0.811702
vt 0.437758 0.823723
vt 0.437676 0.823723
vt 0.437676 0.811702
vt 0.193796 0.808060
vt 0.193796 0.821443
vt 0.201764 0.808060
vt 0.201764 0.821444
vt 0.022942 0.818194
vt 0.022942 0.817635
vt 0.029722 0.818194
vt 0.029722 0.817635
vt 0.029722 0.805853
vt 0.029722 0.817635
vt 0.022942 0.817635
vt 0.022942 0.805853
vt 0.022942 0.829458
vt 0.022942 0.818194
vt 0.029722 0.829458
vt 0.029722 0.818194
vt 0.193796 0.808060
vt 0.193796 0.808060
vt 0.201764 0.808060
vt 0.201764 0.808060
vt 0.022942 0.817635
vt 0.022942 0.817635
vt 0.029722 0.817635
vt 0.029722 0.817635
vt 0.029722 0.805853
vt 0.029722 0.805853
vt 0.022942 0.805853
vt 0.022942 0.805853
vt 0.022942 0.818194
vt 0.022942 0.818194
vt 0.029722 0.818194
vt 0.029722 0.818194
vt 0.193796 0.808060
vt 0.193796 0.808060
vt 0.201764 0.808060
vt 0.201764 0.808060
vt 0.022942 0.817635
vt 0.022942 0.817635
vt 0.029722 0.817635
vt 0.029722 0.817635
vt 0.029722 0.805853
vt 0.029722 0.805853
vt 0.022942 0.805853
vt 0.022942 0.805853
vt 0.022942 0.818194
vt 0.022942 0.818194
vt 0.029722 0.818194
vt 0.029722 0.818194
vt 0.193796 0.808060
vt 0.201764 0.808060
vt 0.022942 0.817635
vt 0.029722 0.817635
vt 0.029722 0.805853
vt 0.022942 0.805853
vt 0.022942 0.818194
vt 0.029722 0.818194
vn 0.000000 1.000000 0.000000
vn 0.000000 1.000000 0.000000
vn 0.000000 1.000000 0.000000
vn 0.000000 1.000000 0.000000
vn 0.000000 -1.000000 0.000000
vn 0.000000 -1.000000 0.000000
vn 0.000000 -1.000000 0.000000
vn 0.000000 -1.000000 0.000000
vn 0.000000 0.000000 1.000000
vn 0.000000 0.000000 1.000000
vn 0.000000 0.000000 1.000000
vn 0.000000 0.000000 1.000000
vn -0.000000 0.000000 1.000000
vn 0.000000 0.000000 1.000000
vn 0.000000 0.000000 1.000000
vn -0.000000 0.000000 1.000000
vn -1.000000 0.000000 0.000000
vn -1.000000 0.000000 0.000000
vn -1.000000 0.000000 0.000000
vn -1.000000 0.000000 0.000000
vn 0.000000 0.000000 1.000000
vn -0.000000 0.000000 1.000000
vn -0.000000 0.000000 1.000000
vn 0.000000 0.000000 1.000000
vn 0.000000 0.000000 1.000000
vn 0.000000 0.000000 1.000000
vn 0.000000 0.000000 1.000000
vn 0.000000 0.000000 1.000000
vn 1.000000 0.000000 0.000000
vn 1.000000 0.000000 0.000000
vn 1.000000 0.000000 0.000000
vn 1.000000 0.000000 0.000000
vn 0.000000 0.000000 1.000000
vn 0.000000 0.000000 1.000000
vn 0.000000 0.000000 1.000000
vn 0.000000 0.000000 1.000000
vn 1.000000 0.000000 0.000000
vn 1.000000 0.000000 0.000000
vn -1.000000 0.000000 0.000000
vn -1.000000 0.000000 0.000000
vn -1.000000 0.000000 0.000000
vn -1.000000 0.000000 0.000000
vn 0.000000 0.000000 1.000000
vn 0.000000 0.000000 1.000000
vn 0.000000 0.000000 1.000000
vn 0.000000 0.000000 1.000000
vn 1.000000 0.000000 0.000000
vn 1.000000 0.000000 0.000000
vn 0.000000 -1.000000 0.000000
vn 0.000000 -1.000000 0.000000
vn 0.000000 -1.000000 0.000000
vn 0.000000 -1.000000 0.000000
vn 1.000000 0.000000 0.000000
vn 1.000000 0.000000 0.000000
vn 1.000000 0.000000 0.000000
vn 1.000000 0.000000 0.000000
vn 0.000000 1.000000 0.000000
vn 0.000000 1.000000 0.000000
vn 0.000000 1.000000 0.000000
vn 0.000000 1.000000 0.000000
vn -1.000000 0.000000 0.000000
vn -1.000000 0.000000 0.000000
vn -1.000000 0.000000 0.000000
vn -1.000000 0.000000 0.000000
vn 1.000000 0.000000 0.000000
vn 1.000000 0.000000 0.000000
vn 1.000000 0.000000 0.000000
vn 1.000000 0.000000 0.000000
vn 0.000000 1.000000 0.000000
vn 0.000000 1.000000 0.000000
vn 0.000000 1.000000 0.000000
vn 0.000000 1.000000 0.000000
vn -1.000000 0.000000 0.000000
vn -1.000000 0.000000 0.000000
vn -1.000000 0.000000 0.000000
vn -1.000000 0.000000 0.000000
vn 0.000000 -1.000000 0.000000
vn 0.000000 -1.000000 0.000000
vn 0.000000 -1.000000 0.000000
vn 0.000000 -1.000000 0.000000
vn 0.000000 0.000000 1.000000
vn 0.000000 0.000000 1.000000
vn 0.000000 0.000000 1.000000
vn 0.000000 0.000000 1.000000
vn 0.000000 0.000000 1.000000
vn 0.000000 0.000000 1.000000
vn 0.000000 0.000000 1.000000
vn 0.000000 0.000000 1.000000
vn 0.000000 0.000000 1.000000
vn 0.000000 0.000000 1.000000
vn 0.000000 0.000000 1.000000
vn 0.000000 0.000000 1.000000
vn -0.000000 0.000000 1.000000
vn -0.000000 0.000000 1.000000
vn -0.000000 0.000000 1.000000
vn -0.000000 0.000000 1.000000
vn 0.000000 0.000000 1.000000
vn 0.000000 0.000000 1.000000
vn 0.000000 0.000000 1.000000
vn 0.000000 0.000000 1.000000
vn 0.000000 0.000000 1.000000
vn 0.000000 0.000000 1.000000
vn 0.000000 0.000000 1.000000
vn 0.000000 0.000000 1.000000
vn -0.000000 0.000000 1.000000
vn -0.000000 0.000000 1.000000
vn -0.000000 0.000000 1.000000
vn -0.000000 0.000000 1.000000
vn 0.000000 0.000000 1.000000
vn 0.000000 0.000000 1.000000
vn 0.000000 0.000000 1.000000
vn 0.000000 0.000000 1.000000
vn 0.000000 -1.000000 0.000000
vn 0.000000 -1.000000 0.000000
vn 0.000000 -1.000000 0.000000
vn 0.000000 -1.000000 0.000000
vn 1.000000 0.000000 0.000000
vn 1.000000 0.000000 0.000000
vn 1.000000 0.000000 0.000000
vn 1.000000 0.000000 0.000000
vn 0.000000 1.000000 0.000000
vn 0.000000 1.000000 0.000000
vn 0.000000 1.000000 0.000000
vn 0.000000 1.000000 0.000000
vn -1.000000 0.000000 0.000000
vn -1.000000 0.000000 0.000000
vn -1.000000 0.000000 0.000000
vn -1.000000 0.000000 0.000000
vn 1.000000 0.000000 0.000000
vn 1.000000 0.000000 0.000000
vn 1.000000 0.000000 0.000000
vn 1.000000 0.000000 0.000000
vn 0.000000 1.000000 0.000000
vn 0.000000 1.000000 0.000000
vn 0.000000 1.000000 0.000000
vn 0.000000 1.000000 0.000000
vn -1.000000 0.000000 0.000000
vn -1.000000 0.000000 0.000000
vn -1.000000 0.000000 0.000000
vn -1.000000 0.000000 0.000000
vn 0.000000 -1.000000 0.000000
vn 0.000000 -1.000000 0.000000
vn 0.000000 -1.000000 0.000000
vn 0.000000 -1.000000 0.000000
vn 0.000000 0.000000 0.000000
vn 0.000000 0.000000 0.000000
vn 0.000000 0.000000 0.000000
vn 0.000000 0.000000 0.000000
vn 0.000000 0.000000 0.000000
vn 0.000000 0.000000 0.000000
vn 0.000000 0.000000 0.000000
vn 0.000000 0.000000 0.000000
vn 0.000000 0.000000 0.000000
vn 0.000000 0.000000 0.000000
vn 0.000000 0.000000 0.000000
vn 0.000000 0.000000 0.000000
vn 0.000000 0.000000 0.000000
vn 0.000000 0.000000 0.000000
vn 0.000000 0.000000 0.000000
vn 0.000000 0.000000 0.000000
vn 0.000000 0.000000 0.000000
vn 0.000000 0.000000 0.000000
vn 0.000000 0.000000 0.000000
vn 0.000000 0.000000 0.000000
vn 0.000000 0.000000 0.000000
vn 0.000000 0.000000 0.000000
vn 0.000000 0.000000 0.000000
vn 0.000000 0.000000 0.000000
vn 0.000000 0.000000 0.000000
vn 0.000000 0.000000 0.000000
vn 0.000000 0.000000 0.000000
vn 0.000000 0.000000 0.000000
vn 0.000000 0.000000 0.000000
vn 0.000000 0.000000 0.000000
vn 0.000000 0.000000 0.000000
vn 0.000000 0.000000 0.000000
vn 0.000000 0.000000 1.000000
vn 0.000000 0.000000 1.000000
vn 0.000000 0.000000 1.000000
vn 0.000000 0.000000 1.000000
vn 0.000000 0.000000 1.000000
vn 0.000000 0.000000 1.000000
vn 0.000000 0.000000 1.000000
vn 0.000000 0.000000 1.000000
vn 0.000000 0.000000 1.000000
vn 0.000000 0.000000 1.000000
vn 0.000000 0.000000 1.000000
vn 0.000000 0.000000 1.000000
vn -0.000000 0.000000 1.000000
vn -0.000000 0.000000 1.000000
vn -0.000000 0.000000 1.000000
vn -0.000000 0.000000 1.000000
vn -0.000000 0.000000 1.000000
vn -0.000000 0.000000 1.000000
vn -0.000000 0.000000 1.000000
vn -0.000000 0.000000 1.000000
vn 0.000000 0.000000 1.000000
vn 0.000000 0.000000 1.000000
vn 0.000000 0.000000 1.000000
vn 0.000000 0.000000 1.000000
vn -0.000000 0.000000 1.000000
vn -0.000000 0.000000 1.000000
vn -0.000000 0.000000 1.000000
vn -0.000000 0.000000 1.000000
vn 0.000000 0.000000 1.000000
vn 0.000000 0.000000 1.000000
vn 0.000000 0.000000 1.000000
vn 0.000000 0.000000 1.000000
vn 0.000000 -1.000000 0.000000
vn 0.000000 -1.000000 0.000000
vn 0.000000 -1.000000 0.000000
vn 0.000000 -1.000000 0.000000
vn 0.000000 1.000000 0.000000
vn 0.000000 1.000000 0.000000
vn 0.000000 1.000000 0.000000
vn 0.000000 1.000000 0.000000
vn 1.000000 0.000000 0.000000
vn 1.000000 0.000000 0.000000
vn 1.000000 0.000000 0.000000
vn 1.000000 0.000000 0.000000
vn -1.000000 0.000001 -0.000000
vn -1.000000 -0.000000 -0.000005
vn -1.000000 -0.000000 -0.000005
vn -1.000000 0.000001 -0.000000
vn -1.000000 0.000000 0.000000
vn -1.000000 0.000000 0.000000
vn 1.000000 0.000000 0.000000
vn 1.000000 0.000000 0.000000
vn 1.000000 0.000000 0.000000
vn 1.000000 0.000000 0.000000
vn -1.000000 -0.000001 -0.000005
vn -1.000000 -0.000001 -0.000005
vn 0.000000 0.000000 -1.000000
vn 0.000000 0.000000 -1.000000
vn 0.000000 0.000000 -1.000000
vn 0.000000 0.000000 -1.000000
vn 0.000000 0.000000 -1.000000
vn 0.000000 0.000000 -1.000000
vn 0.000000 0.000000 -1.000000
vn 0.000000 0.000000 -1.000000
vn 0.000000 0.000000 -1.000000
vn 0.000000 0.000000 -1.000000
vn 0.000000 0.000000 -1.000000
vn 0.000000 0.000000 -1.000000
vn 0.000000 0.000000 -1.000000
vn 0.000000 0.000000 -1.000000
vn 0.000000 0.000000 -1.000000
vn 0.000000 0.000000 -1.000000
vn 0.000000 0.000000 -1.000000
vn 0.000000 0.000000 -1.000000
vn 0.000000 0.000000 -1.000000
vn 0.000000 0.000000 -1.000000
vn 0.000000 0.000000 -1.000000
vn 0.000000 0.000000 -1.000000
vn 0.000000 0.000000 -1.000000
vn 0.000000 0.000000 -1.000000
s off
g polySurface314 polySurface205
usemtl texturedFacets1
f 1/1/1 3/2/2 7/3/3 5/4/4
f 4/5/5 2/6/6 6/7/7 8/8/8
s 1
f 5/9/9 7/10/10 11/11/11 9/12/12
f 8/13/13 6/14/14 10/15/15 12/16/16
s 3
f 13/17/17 14/18/18 16/19/19 15/20/20
s 1
f 15/21/21 16/22/22 18/23/23 17/24/24
f 17/24/24 18/23/23 20/25/25 19/26/26
f 19/26/26 20/25/25 22/27/27 21/28/28
s 4
f 21/29/29 22/30/30 24/31/31 23/32/32
s off
f 42/33/33 41/34/34 43/35/35 44/36/36
s 4
f 21/29/29 23/32/32 1/37/37 5/38/38
s 3
f 3/39/39 13/17/17 15/20/20 7/40/40
s 1
f 19/26/26 21/28/28 5/9/9 9/12/12
f 7/10/10 15/21/21 17/24/24 11/11/11
s 3
f 16/19/19 14/18/18 4/41/41 8/42/42
s 1
f 18/23/23 16/22/22 8/13/13 12/16/16
s off
f 45/43/43 46/44/44 47/45/45 48/46/46
s 1
f 6/14/14 22/27/27 20/25/25 10/15/15
s 4
f 2/47/47 24/31/31 22/30/30 6/48/48
s off
f 17/49/49 19/50/50 25/51/51 26/52/52
f 19/53/53 9/54/54 27/55/55 25/56/56
f 9/57/57 11/58/58 28/59/59 27/60/60
f 11/61/61 17/62/62 26/63/63 28/64/64
f 10/65/65 20/66/66 30/67/67 29/68/68
f 20/69/69 18/70/70 31/71/71 30/72/72
f 18/73/73 12/74/74 32/75/75 31/76/76
f 12/77/77 10/78/78 29/79/79 32/80/80
f 26/81/81 25/82/82 33/83/83 34/84/84
f 25/82/85 27/85/86 35/86/87 33/83/88
f 27/85/89 28/87/90 36/88/91 35/86/92
f 28/87/93 26/81/94 34/84/95 36/88/96
f 29/89/97 30/90/98 38/91/99 37/92/100
f 30/90/101 31/93/102 39/94/103 38/91/104
f 31/93/105 32/95/106 40/96/107 39/94/108
f 32/95/109 29/89/110 37/92/111 40/96/112
f 34/97/113 33/98/114 41/99/115 42/100/116
f 33/101/117 35/102/118 43/103/119 41/104/120
f 35/105/121 36/106/122 44/107/123 43/108/124
f 36/109/125 34/110/126 42/111/127 44/112/128
f 37/113/129 38/114/130 46/115/131 45/116/132
f 38/117/133 39/118/134 47/119/135 46/120/136
f 39/121/137 40/122/138 48/123/139 47/124/140
f 40/125/141 37/126/142 45/127/143 48/128/144
f 3/1/145 1/130/146 50/2/147 49/129/148
f 2/6/149 4/132/150 51/5/151 52/131/152
f 14/18/153 13/133/154 54/17/155 53/134/156
f 23/31/157 24/135/158 55/32/159 56/136/160
f 1/32/161 23/138/162 56/37/163 50/137/164
f 13/17/165 3/139/166 49/39/167 54/140/168
f 4/41/169 14/141/170 53/18/171 51/142/172
f 24/47/173 2/143/174 52/31/175 55/144/176
f 49/129/177 50/2/178 58/145/179 57/146/180
f 52/5/181 51/131/182 59/147/183 60/148/184
f 53/134/185 54/17/186 62/149/187 61/150/188
f 56/32/189 55/136/190 63/151/191 64/152/192
f 50/137/193 56/37/194 64/153/195 58/154/196
f 54/140/197 49/39/198 57/155/199 62/156/200
f 51/142/201 53/18/202 61/157/203 59/158/204
f 55/31/205 52/144/206 60/159/207 63/160/208
f 57/146/209 58/145/210 66/161/211 65/162/212
f 60/147/213 59/148/214 67/163/215 68/164/216
s 5
f 61/150/217 62/149/218 70/165/219 69/166/220
s 6
f 64/151/221 63/152/222 71/167/223 72/168/224
f 58/154/225 64/153/221 72/169/224 66/170/226
s 5
f 62/156/218 57/155/227 65/171/228 70/172/219
f 59/158/229 61/157/217 69/173/220 67/174/230
s 6
f 63/159/222 60/160/231 68/175/232 71/176/223
s off
f 65/162/233 66/161/234 73/177/235
f 68/163/236 67/164/237 73/178/238
f 69/166/239 70/165/240 73/179/241
f 72/167/242 71/168/243 73/180/244
f 66/170/245 72/169/246 73/181/247
f 70/172/248 65/171/249 73/182/250
f 67/174/251 69/173/252 73/183/253
f 71/175/254 68/176/255 73/184/256
